<svg width="40" height="23" viewBox="0 0 40 23" fill="none" xmlns="http://www.w3.org/2000/svg">
<g clip-path="url(#clip0_175_22050)">
<path fill-rule="evenodd" clip-rule="evenodd" d="M36.2512 20.8512C36.1089 21.5578 35.4291 22.1334 34.7357 22.1334H1.77896C1.08547 22.1334 0.635393 21.5578 0.777765 20.8512L4.04312 4.51483C4.18549 3.80821 4.8652 3.2373 5.61839 3.2373H16.7234L10.1329 10.5561L11.1847 5.78299L7.77693 5.77831L4.8652 19.569H8.26834L9.05368 15.7224L9.93547 14.6882L11.1066 19.5737H14.4822L12.5211 12.0677L20.4526 3.24198L16.7234 3.2373H38.2812C38.9149 3.2373 39.3604 3.80821 39.2226 4.51483L36.2512 20.8512ZM14.7256 16.2699L15.9977 9.94781L16.0069 9.95249C16.8795 6.60192 21.2838 6.41005 21.2838 6.41005C25.8673 6.31178 25.2335 9.80742 25.2335 9.80742L24.9028 11.4359H21.6788L22.0049 9.80742C22.1519 8.75452 20.8062 8.75452 20.8062 8.75452C19.3274 8.87619 19.2906 9.95249 19.2906 9.95249L17.9772 16.4664C17.6786 17.6176 19.0518 17.4726 19.0518 17.4726C20.3791 17.5661 20.696 16.3214 20.696 16.3214L20.9945 14.838H24.2139L23.8373 16.7051C22.6938 20.0557 18.5604 19.9106 18.5604 19.9106C13.8622 19.9106 14.7256 16.2699 14.7256 16.2699ZM25.8168 9.94781L24.5446 16.2699C24.5446 16.2699 23.6766 19.9106 28.3795 19.9106C28.3795 19.9106 32.5128 20.0557 33.6564 16.7051L34.033 14.838H30.8136L30.515 16.3214C30.515 16.3214 30.1981 17.5661 28.8755 17.4726C28.8755 17.4726 27.5023 17.6176 27.8008 16.4664L29.1143 9.95249C29.1143 9.95249 29.151 8.87619 30.6298 8.75452C30.6298 8.75452 31.9755 8.75452 31.8285 9.80742L31.4979 11.4359H34.7219L35.0526 9.80742C35.0526 9.80742 35.6863 6.31178 31.1029 6.41005C31.1029 6.41005 26.6986 6.60192 25.826 9.95249L25.8168 9.94781Z" fill="white"/>
<path d="M22.914 0.5H19.1756L16.7231 3.23755H20.4524L22.914 0.5Z" fill="white"/>
</g>
<defs>
<clipPath id="clip0_175_22050">
<rect width="38.5" height="22" fill="white" transform="translate(0.75 0.5)"/>
</clipPath>
</defs>
</svg>
