<svg width="24" height="24" viewBox="0 0 24 24" fill="none" xmlns="http://www.w3.org/2000/svg">
<g opacity="0.5">
<path d="M13.4372 18.2762C14.4252 16.4142 17.7182 16.4142 17.7182 16.4142C21.1502 16.3782 21.6142 14.2942 21.9242 13.2412C21.6508 15.4223 20.6668 17.4528 19.1241 19.0187C17.5814 20.5847 15.566 21.5991 13.3892 21.9052C13.0662 21.2252 12.6842 19.6952 13.4372 18.2762Z" fill="white"/>
<path d="M5.00601 5.83444L4.59401 5.48244C4.55999 5.45324 4.52729 5.42255 4.49601 5.39044C2.88435 7.21481 1.99646 9.56615 2.00001 12.0004C2.00001 17.4604 6.37701 21.9004 11.814 21.9984C11.461 20.9434 11.23 19.2344 12.112 17.5734C12.922 16.0474 14.552 15.4464 15.59 15.1904C16.2662 15.0268 16.9576 14.9346 17.653 14.9154H17.706C19.087 14.8994 19.623 14.4924 19.87 14.2134C20.176 13.8694 20.296 13.4614 20.463 12.8924L20.485 12.8184C20.5799 12.4956 20.7807 12.2141 21.0549 12.0192C21.3291 11.8242 21.6609 11.7271 21.997 11.7434C21.9386 9.34424 21.0161 7.04676 19.399 5.27344C19.367 5.45044 19.329 5.61644 19.292 5.76244C19.122 6.42344 18.838 7.13744 18.488 7.66744C18.147 8.18744 17.539 8.65044 17.136 8.94044C16.831 9.15944 16.519 9.34044 16.263 9.48944L16.171 9.54244C15.939 9.67544 15.755 9.78244 15.579 9.89744C15.223 10.1324 15.009 10.3414 14.865 10.6244C14.953 10.9464 15.015 11.3174 15.017 11.7044C15.019 12.6264 14.547 13.3544 13.984 13.8084C13.4167 14.2621 12.7104 14.5065 11.984 14.5004C9.03401 14.4684 7.30401 12.0614 7.08101 9.58244C7.01601 8.86144 6.69201 8.08444 6.23901 7.36044C5.89266 6.80277 5.4785 6.29019 5.00601 5.83444Z" fill="white"/>
<path d="M8.57482 9.44701C8.38782 7.36301 6.78082 5.42101 5.99982 4.71101L5.56982 4.34101C7.36942 2.82579 9.64728 1.99648 11.9998 2.00001C14.2138 2.00001 16.2598 2.72001 17.9158 3.93601C18.1498 4.64701 17.7038 6.13201 17.2358 6.84201C17.0658 7.09901 16.6818 7.41901 16.2598 7.72201C15.3098 8.40501 14.1098 8.74201 13.4998 10C13.3474 10.3167 13.3178 10.6787 13.4168 11.016C13.4768 11.236 13.5168 11.475 13.5168 11.708C13.5188 12.463 12.7548 13.008 11.9998 13C10.0358 12.979 8.74982 11.396 8.57482 9.44701Z" fill="white"/>
</g>
</svg>
