<svg width="24" height="24" viewBox="0 0 24 24" fill="none" xmlns="http://www.w3.org/2000/svg">
<g opacity="0.5">
<path d="M9.80237 8.28794L10.387 10.4027C10.9375 12.3948 11.2122 13.3914 12.0215 13.8443C12.8308 14.2984 13.8581 14.0305 15.9127 13.497L18.0921 12.9294C20.1466 12.3959 21.1739 12.1292 21.6416 11.3448C22.1092 10.5593 21.8346 9.56267 21.2829 7.57055L20.6994 5.45698C20.1489 3.46372 19.8731 2.46709 19.0649 2.01418C18.2544 1.56014 17.2271 1.82802 15.1726 2.36266L12.9932 2.92795C10.9386 3.46145 9.91134 3.72934 9.44481 4.51483C8.97714 5.2992 9.25184 6.29582 9.80237 8.28794Z" fill="white"/>
<path d="M1.53086 4.33372C1.56077 4.22592 1.61163 4.12506 1.68054 4.03692C1.74945 3.94879 1.83506 3.8751 1.93247 3.82007C2.02988 3.76504 2.13718 3.72975 2.24824 3.71621C2.35929 3.70268 2.47193 3.71117 2.5797 3.7412L4.5128 4.27697C5.02512 4.41611 5.49265 4.68561 5.86983 5.0592C6.247 5.4328 6.52095 5.89774 6.66497 6.40871L9.1066 15.2467L9.28594 15.8665C10.0045 16.1355 10.622 16.6383 11.0136 17.3058L11.3655 17.1968L21.4339 14.5804C21.5421 14.5522 21.6548 14.5456 21.7656 14.561C21.8764 14.5764 21.983 14.6134 22.0795 14.67C22.1759 14.7266 22.2603 14.8017 22.3277 14.8909C22.3951 14.9801 22.4444 15.0817 22.4725 15.1899C22.5007 15.2982 22.5073 15.4109 22.4919 15.5216C22.4765 15.6324 22.4395 15.739 22.3829 15.8355C22.3263 15.9319 22.2512 16.0163 22.162 16.0837C22.0728 16.1512 21.9712 16.2004 21.863 16.2286L11.8309 18.8348L11.4585 18.9506C11.4506 20.3921 10.4551 21.71 8.94995 22.1016C7.14399 22.5716 5.28808 21.5318 4.80452 19.7815C4.32097 18.03 5.39251 16.2297 7.19734 15.7609C7.28627 15.738 7.376 15.7183 7.46636 15.7019L5.0236 6.86162C4.95784 6.6345 4.83442 6.42826 4.66535 6.26297C4.49628 6.09767 4.2873 5.97895 4.05875 5.91834L2.12452 5.38143C2.01674 5.35164 1.91588 5.3009 1.8277 5.23212C1.73953 5.16334 1.66577 5.07786 1.61064 4.98056C1.55551 4.88327 1.52009 4.77607 1.5064 4.66508C1.49271 4.55409 1.50102 4.4415 1.53086 4.33372Z" fill="white"/>
</g>
</svg>
