<svg width="24" height="24" viewBox="0 0 24 24" fill="none" xmlns="http://www.w3.org/2000/svg">
<g opacity="0.5">
<path d="M2.15857 1.54885C2.04949 1.51056 1.93396 1.49452 1.81869 1.50165C1.70341 1.50878 1.59069 1.53894 1.48706 1.59038C1.38344 1.64182 1.29097 1.71352 1.21503 1.8013C1.13909 1.88909 1.08119 1.99123 1.04469 2.10178C1.00819 2.21233 0.993824 2.32909 1.00242 2.44529C1.01101 2.56149 1.04239 2.67481 1.09475 2.77867C1.1471 2.88253 1.21938 2.97487 1.30739 3.05032C1.39541 3.12576 1.49739 3.18282 1.60744 3.21818L1.91556 3.32258C2.70156 3.58653 3.22246 3.76367 3.605 3.94316C3.96777 4.11326 4.12474 4.25051 4.22473 4.39128C4.32589 4.53206 4.40495 4.72445 4.4503 5.12565C4.49797 5.54914 4.49913 6.10284 4.49913 6.93927V10.0738C4.49913 11.6774 4.49913 12.9714 4.63517 13.9885C4.7747 15.0443 5.07701 15.9335 5.77697 16.6397C6.47576 17.3459 7.35827 17.6485 8.40472 17.7905C9.41164 17.9277 10.6941 17.9277 12.2836 17.9277H20.4866C20.7179 17.9277 20.9397 17.8351 21.1032 17.6701C21.2667 17.5051 21.3586 17.2813 21.3586 17.0479C21.3586 16.8146 21.2667 16.5908 21.1032 16.4258C20.9397 16.2608 20.7179 16.1681 20.4866 16.1681H12.3475C10.679 16.1681 9.51512 16.1657 8.6361 16.0473C7.78383 15.9311 7.33153 15.7188 7.00945 15.395C6.73621 15.1193 6.54436 14.7486 6.42111 14.1152H18.1879C19.3029 14.1152 19.8599 14.1152 20.2971 13.8242C20.7342 13.5333 20.954 13.0171 21.3935 11.9824L21.8912 10.8093C22.833 8.59217 23.3039 7.48476 22.7864 6.69409C22.269 5.90342 21.0749 5.90342 18.6844 5.90342H6.2374C6.23418 5.57701 6.21594 5.25092 6.18276 4.92622C6.11881 4.35726 5.97812 3.83523 5.63976 3.36247C5.30141 2.88854 4.85493 2.58822 4.341 2.34773C3.85615 2.12015 3.24107 1.91368 2.5132 1.66733L2.15857 1.54885ZM8.27798 18.9807C8.74054 18.9807 9.18416 19.1661 9.51124 19.4961C9.83832 19.8261 10.0221 20.2737 10.0221 20.7403C10.0221 21.207 9.83832 21.6546 9.51124 21.9846C9.18416 22.3146 8.74054 22.5 8.27798 22.5C7.81542 22.5 7.37181 22.3146 7.04473 21.9846C6.71765 21.6546 6.5339 21.207 6.5339 20.7403C6.5339 20.2737 6.71765 19.8261 7.04473 19.4961C7.37181 19.1661 7.81542 18.9807 8.27798 18.9807ZM18.7425 18.9807C19.2051 18.9807 19.6487 19.1661 19.9757 19.4961C20.3028 19.8261 20.4866 20.2737 20.4866 20.7403C20.4866 21.207 20.3028 21.6546 19.9757 21.9846C19.6487 22.3146 19.2051 22.5 18.7425 22.5C18.2799 22.5 17.8363 22.3146 17.5092 21.9846C17.1822 21.6546 16.9984 21.207 16.9984 20.7403C16.9984 20.2737 17.1822 19.8261 17.5092 19.4961C17.8363 19.1661 18.2799 18.9807 18.7425 18.9807Z" fill="white"/>
</g>
</svg>
