<svg width="24" height="24" viewBox="0 0 24 24" fill="none" xmlns="http://www.w3.org/2000/svg">
<g opacity="0.5">
<path d="M19.049 11.41L18.689 10.76C15.769 5.59 14.309 3 11.999 3C9.68897 3 8.22897 5.59 5.30897 10.76L4.94897 11.41C2.51897 15.71 1.30897 17.86 2.40897 19.43C3.50897 21 6.21897 21 11.639 21H12.369C17.789 21 20.499 21 21.599 19.43C22.699 17.86 21.479 15.71 19.059 11.41H19.049ZM10.749 8C10.749 7.67 10.879 7.35 11.119 7.12C11.359 6.88 11.669 6.75 11.999 6.75C12.329 6.75 12.649 6.88 12.879 7.12C13.119 7.36 13.249 7.67 13.249 8V13C13.249 13.33 13.119 13.65 12.879 13.88C12.649 14.11 12.329 14.25 11.999 14.25C11.669 14.25 11.349 14.12 11.119 13.88C10.889 13.65 10.749 13.33 10.749 13V8ZM13.059 17.57C12.779 17.85 12.399 18.01 11.999 18.01C11.599 18.01 11.219 17.85 10.939 17.57C10.659 17.29 10.499 16.91 10.499 16.51C10.499 16.11 10.659 15.73 10.939 15.45C11.219 15.17 11.599 15.01 11.999 15.01C12.399 15.01 12.779 15.17 13.059 15.45C13.339 15.73 13.499 16.11 13.499 16.51C13.499 16.91 13.339 17.29 13.059 17.57Z" fill="white"/>
</g>
</svg>
