<svg width="24" height="24" viewBox="0 0 24 24" fill="none" xmlns="http://www.w3.org/2000/svg">
<g opacity="0.5">
<path fill-rule="evenodd" clip-rule="evenodd" d="M13.7793 2.152C13.4093 2 12.9393 2 12.0003 2C11.0613 2 10.5913 2 10.2213 2.152C9.72877 2.35421 9.3367 2.74377 9.13132 3.235C9.03732 3.458 9.00132 3.719 8.98632 4.098C8.97965 4.3726 8.90305 4.64097 8.76376 4.87772C8.62448 5.11447 8.42711 5.31178 8.19032 5.451C7.94906 5.5851 7.67786 5.65615 7.40184 5.65754C7.12582 5.65894 6.85392 5.59065 6.61132 5.459C6.27332 5.281 6.02832 5.183 5.78632 5.151C5.25687 5.08148 4.72139 5.2238 4.29632 5.547C3.97832 5.789 3.74332 6.193 3.27432 7C2.80432 7.807 2.57032 8.21 2.51732 8.605C2.44732 9.131 2.59132 9.663 2.91732 10.084C3.06532 10.276 3.27432 10.437 3.59732 10.639C4.07432 10.936 4.38032 11.442 4.38032 12C4.38032 12.558 4.07432 13.064 3.59832 13.36C3.27432 13.563 3.06532 13.724 2.91632 13.916C2.7554 14.1239 2.63728 14.3617 2.5688 14.6156C2.50031 14.8694 2.48282 15.1343 2.51732 15.395C2.57032 15.789 2.80432 16.193 3.27432 17C3.74432 17.807 3.97832 18.21 4.29632 18.453C4.72032 18.776 5.25632 18.918 5.78632 18.849C6.02832 18.817 6.27332 18.719 6.61132 18.541C6.85404 18.4092 7.12613 18.3408 7.40234 18.3422C7.67855 18.3436 7.94994 18.4147 8.19132 18.549C8.67732 18.829 8.96532 19.344 8.98632 19.902C9.00132 20.282 9.03732 20.542 9.13132 20.765C9.33532 21.255 9.72732 21.645 10.2213 21.848C10.5913 22 11.0613 22 12.0003 22C12.9393 22 13.4093 22 13.7793 21.848C14.2719 21.6458 14.6639 21.2562 14.8693 20.765C14.9633 20.542 14.9993 20.282 15.0143 19.902C15.0343 19.344 15.3233 18.828 15.8103 18.549C16.0516 18.4149 16.3228 18.3439 16.5988 18.3425C16.8748 18.3411 17.1467 18.4093 17.3893 18.541C17.7273 18.719 17.9723 18.817 18.2143 18.849C18.7443 18.919 19.2803 18.776 19.7043 18.453C20.0223 18.211 20.2573 17.807 20.7263 17C21.1963 16.193 21.4303 15.79 21.4833 15.395C21.5177 15.1343 21.5 14.8693 21.4314 14.6155C21.3627 14.3616 21.2444 14.1239 21.0833 13.916C20.9353 13.724 20.7263 13.563 20.4033 13.361C19.9263 13.064 19.6203 12.558 19.6203 12C19.6203 11.442 19.9263 10.936 20.4023 10.64C20.7263 10.437 20.9353 10.276 21.0843 10.084C21.2452 9.87606 21.3633 9.63829 21.4318 9.38443C21.5003 9.13057 21.5178 8.86566 21.4833 8.605C21.4303 8.211 21.1963 7.807 20.7263 7C20.2563 6.193 20.0223 5.79 19.7043 5.547C19.2792 5.2238 18.7438 5.08148 18.2143 5.151C17.9723 5.183 17.7273 5.281 17.3893 5.459C17.1466 5.59083 16.8745 5.65922 16.5983 5.65782C16.3221 5.65642 16.0507 5.58528 15.8093 5.451C15.5727 5.31166 15.3755 5.11429 15.2364 4.87755C15.0973 4.64081 15.0209 4.37251 15.0143 4.098C14.9993 3.718 14.9633 3.458 14.8693 3.235C14.7677 2.99174 14.6191 2.77088 14.4321 2.58506C14.245 2.39923 14.0232 2.25208 13.7793 2.152ZM12.0003 15C13.6703 15 15.0233 13.657 15.0233 12C15.0233 10.343 13.6693 9 12.0003 9C10.3303 9 8.97732 10.343 8.97732 12C8.97732 13.657 10.3313 15 12.0003 15Z" fill="white"/>
</g>
</svg>
