<svg width="24" height="24" viewBox="0 0 24 24" fill="none" xmlns="http://www.w3.org/2000/svg">
<g opacity="0.5">
<path d="M14 2H10C6.229 2 4.343 2 3.172 3.172C2 4.343 2 6.229 2 10V11C2 11.552 2 12.05 2.007 12.5H12.602C12.705 11.82 12.938 11.113 13.525 10.525C14.143 9.907 14.895 9.682 15.605 9.587C16.251 9.5 17.045 9.5 17.91 9.5H18.09C18.955 9.5 19.749 9.5 20.394 9.587C20.932 9.659 21.492 9.805 22 10.138V10C22 6.229 22 4.343 20.828 3.172C19.657 2 17.771 2 14 2ZM2.879 16.121C3.757 17 5.172 17 8 17H11.25V21H8C7.80109 21 7.61032 21.079 7.46967 21.2197C7.32902 21.3603 7.25 21.5511 7.25 21.75C7.25 21.9489 7.32902 22.1397 7.46967 22.2803C7.61032 22.421 7.80109 22.5 8 22.5H13.55L13.525 22.475C12.907 21.857 12.682 21.105 12.587 20.395C12.5 19.749 12.5 18.955 12.5 18.09V14.91C12.5 14.412 12.5 13.937 12.517 13.5H2.038C2.108 14.758 2.31 15.552 2.879 16.121Z" fill="white"/>
<path fill-rule="evenodd" clip-rule="evenodd" d="M22 15V18C22 19.886 22 20.828 21.414 21.414C20.828 22 19.886 22 18 22C16.114 22 15.172 22 14.586 21.414C14 20.828 14 19.886 14 18V15C14 13.114 14 12.172 14.586 11.586C15.172 11 16.114 11 18 11C19.886 11 20.828 11 21.414 11.586C22 12.172 22 13.114 22 15ZM16.25 20C16.25 19.8011 16.329 19.6103 16.4697 19.4697C16.6103 19.329 16.8011 19.25 17 19.25H19C19.1989 19.25 19.3897 19.329 19.5303 19.4697C19.671 19.6103 19.75 19.8011 19.75 20C19.75 20.1989 19.671 20.3897 19.5303 20.5303C19.3897 20.671 19.1989 20.75 19 20.75H17C16.8011 20.75 16.6103 20.671 16.4697 20.5303C16.329 20.3897 16.25 20.1989 16.25 20Z" fill="white"/>
</g>
</svg>
