<svg width="24" height="24" viewBox="0 0 24 24" fill="none" xmlns="http://www.w3.org/2000/svg">
<g opacity="0.5">
<path fill-rule="evenodd" clip-rule="evenodd" d="M18.3091 14.5388C17.6533 14.5388 17.0244 14.7993 16.5607 15.263C16.097 15.7268 15.8364 16.3557 15.8364 17.0115C15.8364 17.6673 16.097 18.2962 16.5607 18.7599C17.0244 19.2237 17.6533 19.4842 18.3091 19.4842C18.9649 19.4842 19.5939 19.2237 20.0576 18.7599C20.5213 18.2962 20.7818 17.6673 20.7818 17.0115C20.7818 16.3557 20.5213 15.7268 20.0576 15.263C19.5939 14.7993 18.9649 14.5388 18.3091 14.5388ZM14.188 17.0115C14.1882 16.3689 14.3386 15.7353 14.6273 15.1613C14.916 14.5872 15.3349 14.0886 15.8506 13.7053C16.3662 13.322 16.9644 13.0645 17.5973 12.9535C18.2302 12.8426 18.8803 12.8811 19.4956 13.0661C20.111 13.2511 20.6745 13.5774 21.1413 14.019C21.6081 14.4605 21.9651 15.0051 22.184 15.6093C22.4028 16.2134 22.4773 16.8604 22.4016 17.4984C22.3259 18.1365 22.102 18.748 21.7478 19.2842L22.738 20.2754C22.819 20.3509 22.8839 20.4419 22.929 20.543C22.974 20.6441 22.9983 20.7532 23.0002 20.8639C23.0022 20.9746 22.9818 21.0845 22.9404 21.1871C22.8989 21.2898 22.8372 21.383 22.7589 21.4613C22.6807 21.5395 22.5874 21.6012 22.4848 21.6427C22.3822 21.6842 22.2722 21.7045 22.1616 21.7026C22.0509 21.7006 21.9418 21.6764 21.8407 21.6313C21.7395 21.5863 21.6486 21.5213 21.5731 21.4404L20.5818 20.4502C19.9606 20.8608 19.2398 21.0955 18.4959 21.1292C17.7521 21.163 17.0129 20.9946 16.3571 20.6419C15.7013 20.2892 15.1533 19.7654 14.7714 19.1261C14.3894 18.4869 14.1878 17.7561 14.188 17.0115Z" fill="white"/>
<path d="M9.79179 3H14.1877C18.3319 3 20.4046 3 21.6915 4.288C22.619 5.21443 22.8784 6.54859 22.9509 8.76961H1.02857C1.10111 6.54859 1.36046 5.21443 2.288 4.288C3.5749 3 5.64756 3 9.79179 3ZM9.79179 20.5836H13.7778C13.31 19.9805 12.9666 19.2907 12.7673 18.5539C12.5681 17.8172 12.517 17.0483 12.617 16.2917C12.7169 15.535 12.9661 14.8058 13.3499 14.1461C13.7337 13.4864 14.2445 12.9095 14.8529 12.4486C15.4612 11.9878 16.1549 11.6522 16.8939 11.4613C17.6328 11.2704 18.4023 11.2281 19.1577 11.3367C19.9131 11.4452 20.6395 11.7026 21.2948 12.0939C21.9501 12.4852 22.5212 13.0026 22.9751 13.6161C22.9795 13.0589 22.9795 12.4512 22.9795 11.7918C22.9795 11.306 22.9795 10.8489 22.9773 10.4181H1.0022C1 10.8489 1 11.306 1 11.7918C1 15.936 1 18.0087 2.288 19.2956C3.5749 20.5836 5.64756 20.5836 9.79179 20.5836Z" fill="white"/>
<path d="M4.57178 16.1875C4.57178 15.9689 4.65862 15.7593 4.81319 15.6047C4.96776 15.4501 5.17741 15.3633 5.39601 15.3633H9.7919C10.0105 15.3633 10.2202 15.4501 10.3747 15.6047C10.5293 15.7593 10.6161 15.9689 10.6161 16.1875C10.6161 16.4061 10.5293 16.6158 10.3747 16.7703C10.2202 16.9249 10.0105 17.0117 9.7919 17.0117H5.39601C5.17741 17.0117 4.96776 16.9249 4.81319 16.7703C4.65862 16.6158 4.57178 16.4061 4.57178 16.1875Z" fill="white"/>
</g>
</svg>
