<svg width="517" height="53" viewBox="0 0 517 53" fill="none" xmlns="http://www.w3.org/2000/svg">
<g clip-path="url(#clip0_145_15001)">
<path d="M156.789 46.7164V15.2605H164.319V46.7164H156.789Z" fill="#1A4298"/>
<path d="M178.003 15.2605H167.721V46.7164H178.003C185.648 46.7164 188.17 43.2005 188.17 36.4306V24.2372C188.17 18.4772 184.616 15.2605 178.003 15.2605ZM180.64 36.7672C180.64 38.4877 180.487 41.0685 178.003 41.0685H175.251V20.9457H178.003C180.449 20.9457 180.64 23.1525 180.64 24.9853V36.8046V36.7672Z" fill="#1A4298"/>
<path d="M110.999 46.7163V15.2979H118.529V27.8652H118.605L124.185 15.2979H131.906L125.065 29.1744L132.365 46.7537H124.415L120.249 35.7947L118.567 38.9739V46.7163H111.037H110.999Z" fill="#1A4298"/>
<path d="M145.743 26.2569V24.2371C145.743 21.5441 144.749 20.1602 143.335 20.1602C140.965 20.1228 140.43 21.3945 140.43 23.4143V38.9739C140.43 40.7319 141.118 41.7791 143.106 41.7791C145.667 41.7791 145.896 39.1609 145.896 37.2534V34.4108H153.426V38.2633C153.426 43.6867 150.253 47.427 142.532 47.427C135.576 47.427 132.9 43.8363 132.9 37.403V24.499C132.9 17.6542 136.111 14.475 143.029 14.475C149.451 14.475 153.311 17.168 153.311 23.5639V26.2195H145.781L145.743 26.2569Z" fill="#1A4298"/>
<path d="M259.073 46.7163V15.2979H266.603V27.8652H266.68L272.26 15.2979H279.981L273.139 29.1744L280.402 46.7537H272.451L268.285 35.7947L266.603 38.9739V46.7163H259.073Z" fill="#1A4298"/>
<path d="M293.818 26.2569V24.2371C293.818 21.5441 292.824 20.1602 291.41 20.1602C289.04 20.1228 288.505 21.3945 288.505 23.4143V38.9739C288.505 40.7319 289.193 41.7791 291.18 41.7791C293.741 41.7791 293.971 39.1609 293.971 37.2534V34.4108H301.501V38.2633C301.501 43.6867 298.328 47.427 290.607 47.427C283.651 47.427 280.975 43.8363 280.975 37.403V24.499C280.975 17.6542 284.186 14.475 291.104 14.475C297.525 14.475 301.386 17.168 301.386 23.5639V26.2195H293.856L293.818 26.2569Z" fill="#1A4298"/>
<path d="M317.669 26.2569V24.2371C317.669 21.5441 316.675 20.1602 315.261 20.1602C312.891 20.1228 312.356 21.3945 312.356 23.4143V38.9739C312.318 40.7319 313.044 41.7791 315.031 41.7791C317.592 41.7791 317.822 39.1609 317.822 37.2534V34.4108H325.352V38.2633C325.352 43.6867 322.179 47.427 314.458 47.427C307.502 47.427 304.826 43.8363 304.826 37.403V24.499C304.826 17.6542 308.037 14.475 314.917 14.475C321.338 14.475 325.199 17.168 325.199 23.5639V26.2195H317.669V26.2569Z" fill="#1A4298"/>
<path d="M222.762 15.2604H242.294V21.5441H236.216V46.7163H228.686V21.5815H222.762V15.2978V15.2604Z" fill="#1A4298"/>
<path d="M208.925 20.9456H209.728C210.951 20.9456 211.983 20.9456 212.709 21.2074C214.009 21.8058 214.123 23.6386 214.123 24.8729C214.123 25.9576 213.932 27.2293 213.168 28.0521C211.983 28.9872 210.339 28.8002 208.925 28.8376V20.9456ZM208.925 46.7536V34.5229C211.754 34.4106 214.812 34.7847 217.411 33.513C220.851 31.9795 221.653 28.1269 221.653 24.7607C221.653 22.2173 221.309 19.8609 219.551 17.9159C217.449 15.5595 213.244 15.2977 210.339 15.2977H201.395V46.7162H208.925V46.7536Z" fill="#1A4298"/>
<path d="M245.848 40.4326H239.427V46.7163H245.848V40.4326Z" fill="#1A4298"/>
<path d="M86.7272 53.0001C88.4855 53.0001 90.2437 51.5787 90.5877 49.8582L98.1558 9.83704C98.4998 8.1165 97.3531 6.69519 95.7478 6.69519H12.4223C10.5112 6.69519 8.75292 8.1165 8.40892 9.83704L0.0763751 49.8582C-0.267629 51.5787 0.879052 53.0001 2.6373 53.0001H86.7272Z" fill="#1A4298"/>
<path d="M38.9107 23.1524L35.6618 38.6372C35.6618 38.6372 33.4448 47.5391 45.4468 47.5391C45.4468 47.5391 55.9962 47.9131 58.9012 39.6845L59.8567 35.1213H51.6388L50.8744 38.7494C50.8744 38.7494 50.0717 41.8165 46.7081 41.5546C46.7081 41.5546 43.1916 41.8913 43.9561 39.086L47.3197 23.115C47.3197 23.115 47.3961 20.4594 51.1802 20.1601C51.1802 20.1601 54.6202 20.1601 54.238 22.7409L53.3971 26.7431H61.615L62.4559 22.7409C62.4559 22.7409 64.0612 14.1757 52.3651 14.4001C52.3651 14.4001 41.1276 14.8489 38.9107 23.0776V23.1524Z" fill="white"/>
<path d="M63.9466 23.1524L60.6977 38.6372C60.6977 38.6372 58.4807 47.5391 70.4827 47.5391C70.4827 47.5391 81.0321 47.9131 83.937 39.6845L84.8926 35.1213H76.6747L75.9103 38.7494C75.9103 38.7494 75.1076 41.8165 71.744 41.5546C71.744 41.5546 68.2275 41.8913 68.992 39.086L72.3556 23.115C72.3556 23.115 72.432 20.4594 76.2161 20.1601C76.2161 20.1601 79.6561 20.1601 79.2739 22.7409L78.433 26.7431H86.6509L87.4918 22.7409C87.4918 22.7409 89.1353 14.1757 77.4392 14.4001C77.4392 14.4001 66.2017 14.8489 63.9848 23.0776L63.9466 23.1524Z" fill="white"/>
<path d="M50.2628 6.69519H40.7454L23.9274 24.6486L26.603 12.9415H17.9265L10.5113 46.7164H19.1878L21.1754 37.2908L23.4305 34.7474L26.4119 46.7164H35.0502L30.0431 28.3515L50.2628 6.69519Z" fill="white"/>
<path d="M56.5314 0H47.0139L40.7454 6.69513H50.2629L56.5314 0Z" fill="#EE3123"/>
<path d="M338.538 15.2979H342.513V46.7163H338.538V15.2979Z" fill="#1A4298"/>
<path d="M347.253 15.2979H352.375L363.001 41.5547H363.077V15.2979H367.052V46.7163H361.587L351.266 21.2449H351.19V46.7163H347.215V15.2979H347.253Z" fill="#1A4298"/>
<path d="M372.251 15.2979H380.851C390.827 15.2979 392.088 22.367 392.088 31.0071C392.088 38.9365 390.063 46.7163 381.233 46.7163H372.213V15.2979H372.251ZM376.226 43.5745H380.354C387.196 43.5745 387.96 36.6923 387.96 31.0819C387.96 24.9852 387.54 18.4771 380.354 18.4771H376.226V43.5745Z" fill="#1A4298"/>
<path d="M416.666 31.0071C416.666 38.9365 415.175 47.3522 406.307 47.3522C397.44 47.3522 395.949 38.9365 395.949 31.0071C395.949 23.0777 397.44 14.662 406.307 14.662C415.175 14.662 416.666 23.0777 416.666 31.0071ZM400.115 31.0071C400.115 38.2633 400.841 44.1729 406.307 44.1729C411.773 44.1729 412.499 38.2633 412.499 31.0071C412.499 23.7509 411.773 17.8412 406.307 17.8412C400.841 17.8412 400.115 23.7509 400.115 31.0071Z" fill="#1A4298"/>
<path d="M420.985 15.2979H426.106L436.732 41.5547H436.809V15.2979H440.784V46.7163H435.318L424.998 21.2449H424.922V46.7163H420.946V15.2979H420.985Z" fill="#1A4298"/>
<path d="M445.562 15.2979H462.151V18.7389H449.499V28.6133H461.424V32.0544H449.499V43.3127H462.686V46.7537H445.562V15.2979Z" fill="#1A4298"/>
<path d="M479.58 23.4517C479.58 20.1602 478.357 17.8413 474.611 17.8413C471.286 17.8413 469.298 19.5992 469.298 22.9655C469.298 31.83 484.473 26.5188 484.473 38.0389C484.473 45.295 479.045 47.3896 474.458 47.3896C466.928 47.3896 464.75 43.6119 464.75 36.9168H468.725C468.725 40.4327 468.954 44.2478 474.764 44.2478C477.898 44.2478 480.344 42.041 480.344 38.7121C480.344 29.8102 465.17 34.9718 465.17 23.4143C465.17 20.4969 466.431 14.7368 474.573 14.7368C480.689 14.7368 483.479 17.7291 483.593 23.4891H479.618L479.58 23.4517Z" fill="#1A4298"/>
<path d="M487.989 15.2979H491.964V46.7163H487.989V15.2979Z" fill="#1A4298"/>
<path d="M503.049 15.2979H508.362L517 46.7537H512.872L510.579 38.1137H500.335L497.965 46.7537H493.837L503.125 15.2979H503.049ZM501.099 34.9344H509.738L505.648 19.7488H505.571L501.099 34.9344Z" fill="#1A4298"/>
</g>
<defs>
<clipPath id="clip0_145_15001">
<rect width="517" height="53" fill="white"/>
</clipPath>
</defs>
</svg>
